<?xml version="1.0" standalone="no"?><!DOCTYPE svg PUBLIC "-//W3C//DTD SVG 1.1//EN" "http://www.w3.org/Graphics/SVG/1.1/DTD/svg11.dtd"><svg t="1507817592104" class="icon" style="" viewBox="0 0 1024 1024" version="1.1" xmlns="http://www.w3.org/2000/svg" p-id="19337" xmlns:xlink="http://www.w3.org/1999/xlink" width="200" height="200"><defs><style type="text/css"></style></defs><path d="M328.644712 354.862607c29.355236 0 53.289752 23.862841 53.289752 53.130017 0 15.758383 13.097172 28.815621 28.90368 28.815622s28.90368-12.606706 28.90368-28.815622c0-61.234475-50.12886-111.211793-111.548668-111.211792s-111.548668 49.978341-111.548668 111.211792a28.770568 28.770568 0 0 0 28.90368 28.815622c16.258064 0 29.355236-13.057238 29.806792-28.815622 0-29.267177 23.93554-53.130018 53.289752-53.130017zM696.2584 296.779808c-61.419808 0-111.548668 49.978341-111.548668 111.211793 0 15.758383 13.097172 28.815621 28.90368 28.815621s28.90368-12.606706 28.90368-28.815621c0-29.266153 23.93554-53.130018 53.289752-53.130018s53.289752 23.862841 53.289752 53.130018a28.770568 28.770568 0 0 0 28.90368 28.815621c16.258064 0 29.355236-13.057238 29.806792-28.815621-0.001024-61.233452-50.129884-111.211793-111.548668-111.211793z" fill="" p-id="19338"></path><path d="M512 64.000128c-247.42402 0-447.999872 200.575852-447.999872 447.999872s200.576876 447.999872 447.999872 447.999872c247.422996 0 447.999872-200.575852 447.999872-447.999872S759.422996 64.000128 512 64.000128zM785.341901 785.341901c-35.521382 35.521382-76.867938 63.402149-122.892861 82.86923-47.618168 20.140831-98.236469 30.35255-150.44904 30.35255s-102.831896-10.211719-150.44904-30.35255c-46.024922-19.467081-87.371479-47.347848-122.892861-82.86923s-63.402149-76.867938-82.86923-122.892861c-20.140831-47.618168-30.35255-98.236469-30.35255-150.44904s10.212743-102.830872 30.35255-150.44904c19.467081-46.023899 47.347848-87.371479 82.86923-122.892861s76.867938-63.402149 122.892861-82.86923c47.618168-20.140831 98.236469-30.35255 150.44904-30.35255s102.830872 10.211719 150.44904 30.35255c46.023899 19.467081 87.371479 47.347848 122.892861 82.86923s63.402149 76.867938 82.86923 122.892861c20.140831 47.618168 30.35255 98.236469 30.35255 150.44904s-10.212743 102.830872-30.35255 150.44904c-19.467081 46.024922-47.348872 87.371479-82.86923 122.892861z" fill="" p-id="19339"></path><path d="M729.22506 548.470571H295.225472c-9.935256 0-18.064288 8.104458-18.064288 18.010019v82.396172c0 109.861221 75.870624 202.162954 178.387148 227.37739 18.064288 3.151677 37.032712 4.502249 56.451668 4.502249 18.9674 0 37.484268-1.801104 56.451668-4.502249 102.064968-25.214437 178.387148-117.515146 178.387148-227.37739h0.451556v-82.396172c0-9.905562-8.129032-18.010019-18.065312-18.010019z m-43.370879 92.919167a62.085367 62.085367 0 0 0-0.451556 7.486c0 19.797813-3.344177 39.198338-9.940376 57.664009-6.381172 17.86462-15.664181 34.512804-27.592017 49.48378-23.262814 29.195502-55.596681 50.370509-91.307491 59.85728-17.169367 2.342767-31.402085 3.438379-44.562741 3.438379-15.950883 0-30.672018-1.087421-43.796837-3.234615-36.144959-9.363899-68.825941-30.619798-92.208555-60.020087-11.885855-14.944353-21.136098-31.582298-27.492695-49.451014-6.570601-18.470791-9.90249-37.896914-9.90249-57.737732v-38.97H685.856229v31.484z" fill="" p-id="19340"></path></svg>