<?xml version="1.0" standalone="no"?><!DOCTYPE svg PUBLIC "-//W3C//DTD SVG 1.1//EN" "http://www.w3.org/Graphics/SVG/1.1/DTD/svg11.dtd"><svg t="1507816100846" class="icon" style="" viewBox="0 0 1024 1024" version="1.1" xmlns="http://www.w3.org/2000/svg" p-id="13881" xmlns:xlink="http://www.w3.org/1999/xlink" width="200" height="200"><defs><style type="text/css"></style></defs><path d="M511.999996 0c-282.487694 0-511.488336 229.001664-511.488336 511.488336s229.001664 511.488336 511.488336 511.488336 511.488336-229.001664 511.488336-511.488336S794.48769 0 511.999996 0zM511.999996 920.586588c-225.938835 0-409.09723-183.159417-409.09723-409.09723S286.061161 102.391106 511.999996 102.391106s409.09723 183.159417 409.09723 409.09723S737.937809 920.586588 511.999996 920.586588z" p-id="13882" fill="#515151"></path><path d="M338.516706 344.014161 262.248586 267.746041 225.453747 304.54088 301.721867 380.808999 225.453747 457.077119 262.248586 493.870936 338.516706 417.602816 375.310522 380.808999Z" p-id="13883" fill="#515151"></path><path d="M681.394062 344.014161 757.662182 267.746041 794.455998 304.54088 718.187879 380.808999 794.455998 457.077119 757.662182 493.870936 681.394062 417.602816 644.599223 380.808999Z" p-id="13884" fill="#515151"></path><path d="M261.63418 744.393165c15.470557-125.662881 122.564271-222.964947 252.410428-222.964947 129.846157 0 236.939871 97.302066 252.410428 222.964947l52.910471 0C803.639374 589.62932 672.95697 468.855107 514.044608 468.855107S224.44882 589.62932 208.723709 744.393165L261.63418 744.393165z" p-id="13885" fill="#515151"></path></svg>