<?xml version="1.0" standalone="no"?><!DOCTYPE svg PUBLIC "-//W3C//DTD SVG 1.1//EN" "http://www.w3.org/Graphics/SVG/1.1/DTD/svg11.dtd"><svg t="1507818548122" class="icon" style="" viewBox="0 0 1024 1024" version="1.1" xmlns="http://www.w3.org/2000/svg" p-id="20296" xmlns:xlink="http://www.w3.org/1999/xlink" width="32" height="32"><defs><style type="text/css"></style></defs><path d="M290.133333 332.8c23.893333 0 42.666667 18.773333 42.666667 42.666667s-18.773333 42.666667-42.666667 42.666666-42.666667-18.773333-42.666666-42.666666 18.773333-42.666667 42.666666-42.666667z" fill="#EC651A" p-id="20297"></path><path d="M512 0C229.546667 0 0 229.546667 0 512s229.546667 512 512 512 512-229.546667 512-512S794.453333 0 512 0z" fill="#FFFFFF" p-id="20298"></path><path d="M512 0C229.546667 0 0 229.546667 0 512s229.546667 512 512 512 512-229.546667 512-512S794.453333 0 512 0z m0 981.333333C252.586667 981.333333 42.666667 771.413333 42.666667 512S252.586667 42.666667 512 42.666667s469.333333 209.92 469.333333 469.333333-209.92 469.333333-469.333333 469.333333z" fill="#EC651A" p-id="20299"></path><path d="M512 725.333333c-113.493333 0-204.8-95.573333-204.8-213.333333h-51.2c0 141.653333 114.346667 256 256 256s256-114.346667 256-256h-51.2c0 117.76-91.306667 213.333333-204.8 213.333333z" fill="#EC651A" p-id="20300"></path><path d="M725.333333 375.466667m-42.666666 0a42.666667 42.666667 0 1 0 85.333333 0 42.666667 42.666667 0 1 0-85.333333 0Z" fill="#EC651A" p-id="20301"></path><path d="M298.666667 375.466667m-42.666667 0a42.666667 42.666667 0 1 0 85.333333 0 42.666667 42.666667 0 1 0-85.333333 0Z" fill="#EC651A" p-id="20302"></path></svg>